<svg width="23" height="24" viewBox="0 0 23 24" fill="none" xmlns="http://www.w3.org/2000/svg">
<path d="M19.5469 4.22656C21.6797 6.35938 23 9.15234 23 12.1992C23 18.3945 17.8203 23.4727 11.5742 23.4727C9.69531 23.4727 7.86719 22.9648 6.19141 22.1016L0.25 23.625L1.82422 17.7852C0.859375 16.1094 0.300781 14.1797 0.300781 12.1484C0.300781 5.95312 5.37891 0.875 11.5742 0.875C14.6211 0.875 17.4648 2.09375 19.5469 4.22656ZM11.5742 21.543C16.7539 21.543 21.0703 17.3281 21.0703 12.1992C21.0703 9.66016 20.0039 7.32422 18.2266 5.54688C16.4492 3.76953 14.1133 2.80469 11.625 2.80469C6.44531 2.80469 2.23047 7.01953 2.23047 12.1484C2.23047 13.9258 2.73828 15.6523 3.65234 17.1758L3.90625 17.5312L2.94141 20.9844L6.49609 20.0195L6.80078 20.2227C8.27344 21.0859 9.89844 21.543 11.5742 21.543ZM16.7539 14.5352C17.0078 14.6875 17.2109 14.7383 17.2617 14.8906C17.3633 14.9922 17.3633 15.5508 17.1094 16.2109C16.8555 16.8711 15.7383 17.4805 15.2305 17.5312C14.3164 17.6836 13.6055 17.6328 11.8281 16.8203C8.98438 15.6016 7.15625 12.7578 7.00391 12.6055C6.85156 12.4023 5.88672 11.082 5.88672 9.66016C5.88672 8.28906 6.59766 7.62891 6.85156 7.32422C7.10547 7.01953 7.41016 6.96875 7.61328 6.96875C7.76562 6.96875 7.96875 6.96875 8.12109 6.96875C8.32422 6.96875 8.52734 6.91797 8.78125 7.47656C8.98438 8.03516 9.59375 9.40625 9.64453 9.55859C9.69531 9.71094 9.74609 9.86328 9.64453 10.0664C9.13672 11.1328 8.52734 11.082 8.83203 11.5898C9.94922 13.4688 11.0156 14.1289 12.6914 14.9414C12.9453 15.0938 13.0977 15.043 13.3008 14.8906C13.4531 14.6875 14.0117 14.0273 14.1641 13.7734C14.3672 13.4688 14.5703 13.5195 14.8242 13.6211C15.0781 13.7227 16.4492 14.3828 16.7539 14.5352Z" fill="#7C58D3"/>
</svg>
