<svg width="26" height="22" viewBox="0 0 26 22" fill="none" xmlns="http://www.w3.org/2000/svg">
<path d="M23.3086 5.96875C23.3086 6.22266 23.3086 6.42578 23.3086 6.67969C23.3086 13.7383 17.9766 21.8125 8.17578 21.8125C5.12891 21.8125 2.33594 20.9492 0 19.4258C0.40625 19.4766 0.8125 19.5273 1.26953 19.5273C3.75781 19.5273 6.04297 18.6641 7.87109 17.2422C5.53516 17.1914 3.55469 15.668 2.89453 13.5352C3.25 13.5859 3.55469 13.6367 3.91016 13.6367C4.36719 13.6367 4.875 13.5352 5.28125 13.4336C2.84375 12.9258 1.01562 10.793 1.01562 8.20312V8.15234C1.72656 8.55859 2.58984 8.76172 3.45312 8.8125C1.98047 7.84766 1.06641 6.22266 1.06641 4.39453C1.06641 3.37891 1.32031 2.46484 1.77734 1.70312C4.41797 4.90234 8.37891 7.03516 12.7969 7.28906C12.6953 6.88281 12.6445 6.47656 12.6445 6.07031C12.6445 3.125 15.0312 0.738281 17.9766 0.738281C19.5 0.738281 20.8711 1.34766 21.8867 2.41406C23.0547 2.16016 24.2227 1.70312 25.2383 1.09375C24.832 2.36328 24.0195 3.37891 22.9023 4.03906C23.9688 3.9375 25.0352 3.63281 25.9492 3.22656C25.2383 4.29297 24.3242 5.20703 23.3086 5.96875Z" fill="#7C58D3"/>
</svg>
