<svg width="23" height="24" viewBox="0 0 23 24" fill="none" xmlns="http://www.w3.org/2000/svg">
<path d="M11.625 6.41016C14.8242 6.41016 17.4648 9.05078 17.4648 12.25C17.4648 15.5 14.8242 18.0898 11.625 18.0898C8.375 18.0898 5.78516 15.5 5.78516 12.25C5.78516 9.05078 8.375 6.41016 11.625 6.41016ZM11.625 16.0586C13.707 16.0586 15.3828 14.3828 15.3828 12.25C15.3828 10.168 13.707 8.49219 11.625 8.49219C9.49219 8.49219 7.81641 10.168 7.81641 12.25C7.81641 14.3828 9.54297 16.0586 11.625 16.0586ZM19.0391 6.20703C19.0391 6.96875 18.4297 7.57812 17.668 7.57812C16.9062 7.57812 16.2969 6.96875 16.2969 6.20703C16.2969 5.44531 16.9062 4.83594 17.668 4.83594C18.4297 4.83594 19.0391 5.44531 19.0391 6.20703ZM22.8984 7.57812C23 9.45703 23 15.0938 22.8984 16.9727C22.7969 18.8008 22.3906 20.375 21.0703 21.7461C19.75 23.0664 18.125 23.4727 16.2969 23.5742C14.418 23.6758 8.78125 23.6758 6.90234 23.5742C5.07422 23.4727 3.5 23.0664 2.12891 21.7461C0.808594 20.375 0.402344 18.8008 0.300781 16.9727C0.199219 15.0938 0.199219 9.45703 0.300781 7.57812C0.402344 5.75 0.808594 4.125 2.12891 2.80469C3.5 1.48438 5.07422 1.07812 6.90234 0.976562C8.78125 0.875 14.418 0.875 16.2969 0.976562C18.125 1.07812 19.75 1.48438 21.0703 2.80469C22.3906 4.125 22.7969 5.75 22.8984 7.57812ZM20.4609 18.9531C21.0703 17.4805 20.918 13.9258 20.918 12.25C20.918 10.625 21.0703 7.07031 20.4609 5.54688C20.0547 4.58203 19.293 3.76953 18.3281 3.41406C16.8047 2.80469 13.25 2.95703 11.625 2.95703C9.94922 2.95703 6.39453 2.80469 4.92188 3.41406C3.90625 3.82031 3.14453 4.58203 2.73828 5.54688C2.12891 7.07031 2.28125 10.625 2.28125 12.25C2.28125 13.9258 2.12891 17.4805 2.73828 18.9531C3.14453 19.9688 3.90625 20.7305 4.92188 21.1367C6.39453 21.7461 9.94922 21.5938 11.625 21.5938C13.25 21.5938 16.8047 21.7461 18.3281 21.1367C19.293 20.7305 20.1055 19.9688 20.4609 18.9531Z" fill="#7C58D3"/>
</svg>
