<svg width="52" height="53" viewBox="0 0 52 53" fill="none" xmlns="http://www.w3.org/2000/svg">
<path d="M49.9766 37.2656L38.6016 32.3906C38.2969 32.2891 37.9922 32.1875 37.5859 32.1875C36.875 32.1875 36.1641 32.5938 35.7578 33.1016L30.6797 39.2969C22.7578 35.5391 16.4609 29.2422 12.7031 21.3203L18.8984 16.2422C19.4062 15.8359 19.8125 15.125 19.8125 14.3125C19.8125 14.0078 19.7109 13.7031 19.6094 13.3984L14.7344 2.02344C14.3281 1.10938 13.4141 0.5 12.3984 0.5C12.2969 0.5 12.0938 0.601562 11.8906 0.601562L1.32812 3.03906C0.210938 3.34375 -0.5 4.25781 -0.5 5.375C-0.5 31.4766 20.5234 52.5 46.625 52.5C47.7422 52.5 48.6562 51.7891 48.9609 50.6719L51.3984 40.1094C51.3984 39.9062 51.3984 39.7031 51.3984 39.6016C51.3984 38.5859 50.7891 37.6719 49.9766 37.2656Z" fill="#9C5BF5"/>
</svg>
