<svg width="21" height="19" viewBox="0 0 21 19" fill="none" xmlns="http://www.w3.org/2000/svg">
<path d="M18.5625 11.3672L20.2148 4.05469C20.3203 3.52734 19.9336 3 19.3711 3H5.58984L5.27344 1.45312C5.16797 1.06641 4.81641 0.75 4.42969 0.75H0.84375C0.351562 0.75 0 1.13672 0 1.59375V2.15625C0 2.64844 0.351562 3 0.84375 3H3.26953L5.76562 15.0938C5.16797 15.4453 4.78125 16.0781 4.78125 16.7812C4.78125 17.8711 5.66016 18.75 6.75 18.75C7.80469 18.75 8.71875 17.8711 8.71875 16.7812C8.71875 16.2539 8.47266 15.7617 8.12109 15.375H15.4688C15.1172 15.7617 14.9062 16.2539 14.9062 16.7812C14.9062 17.8711 15.7852 18.75 16.875 18.75C17.9297 18.75 18.8438 17.8711 18.8438 16.7812C18.8438 16.0078 18.3867 15.3398 17.7188 15.0234L17.8945 14.1797C18.0352 13.6523 17.6133 13.125 17.0859 13.125H7.66406L7.41797 12H17.7188C18.1055 12 18.457 11.7539 18.5625 11.3672Z" fill="#7C58D3"/>
</svg>
